<?xml version="1.0" encoding="UTF-8" standalone="no"?>
<svg
   xmlns:dc="http://purl.org/dc/elements/1.1/"
   xmlns:cc="http://creativecommons.org/ns#"
   xmlns:rdf="http://www.w3.org/1999/02/22-rdf-syntax-ns#"
   xmlns:svg="http://www.w3.org/2000/svg"
   xmlns="http://www.w3.org/2000/svg"
   xmlns:sodipodi="http://sodipodi.sourceforge.net/DTD/sodipodi-0.dtd"
   xmlns:inkscape="http://www.inkscape.org/namespaces/inkscape"
   inkscape:version="1.0 (4035a4fb49, 2020-05-01)"
   sodipodi:docname="upwork-color.svg"
   id="svg26"
   version="1.1"
   viewBox="0 0 24 24"
   role="img">
  <metadata
     id="metadata32">
    <rdf:RDF>
      <cc:Work
         rdf:about="">
        <dc:format>image/svg+xml</dc:format>
        <dc:type
           rdf:resource="http://purl.org/dc/dcmitype/StillImage" />
        <dc:title>Upwork</dc:title>
      </cc:Work>
    </rdf:RDF>
  </metadata>
  <defs
     id="defs30" />
  <sodipodi:namedview
     inkscape:current-layer="svg26"
     inkscape:window-maximized="1"
     inkscape:window-y="-8"
     inkscape:window-x="-8"
     inkscape:cy="12"
     inkscape:cx="11.306176"
     inkscape:zoom="31.708333"
     showgrid="false"
     id="namedview28"
     inkscape:window-height="1017"
     inkscape:window-width="1920"
     inkscape:pageshadow="2"
     inkscape:pageopacity="0"
     guidetolerance="10"
     gridtolerance="10"
     objecttolerance="10"
     borderopacity="1"
     bordercolor="#666666"
     pagecolor="#ffffff" />
  <title
     id="title22">Upwork</title>
  <path
     style="fill:#6fda44;fill-opacity:1"
     id="path24"
     d="M18.561 13.158c-1.102 0-2.135-.467-3.074-1.227l.228-1.076.008-.042c.207-1.143.849-3.06 2.839-3.06 1.492 0 2.703 1.212 2.703 2.703-.001 1.489-1.212 2.702-2.704 2.702zm0-8.14c-2.539 0-4.51 1.649-5.31 4.366-1.22-1.834-2.148-4.036-2.687-5.892H7.828v7.112c-.002 1.406-1.141 2.546-2.547 2.548-1.405-.002-2.543-1.143-2.545-2.548V3.492H0v7.112c0 2.914 2.37 5.303 5.281 5.303 2.913 0 5.283-2.389 5.283-5.303v-1.19c.529 1.107 1.182 2.229 1.974 3.221l-1.673 7.873h2.797l1.213-5.71c1.063.679 2.285 1.109 3.686 1.109 3 0 5.439-2.452 5.439-5.45 0-3-2.439-5.439-5.439-5.439z" />
</svg>
